# xmcd CD database file
#
# Track frame offsets:
#	150
#	13610
#	25348
#	35869
#	48383
#	57694
#	72801
#	86228
#	103161
#	116147
#	128584
#	145004
#	157299
#	169821
#	184681
#	199784
#	214928
#	225444
#	237722
#	250640
#
# Disc length: 3621 seconds
#
# Revision: 0
# Processed by: cddbd v1.5.2PL0 Copyright (c) Steve Scherf et al.
# Submitted via: CDex 1.51
#
DISCID=2a0e2314
DTITLE=Tompall and the Glaser Brothers - Lovin' Her Was Easier - After All These Years 
DYEAR=2006
DGENRE=Country
TTITLE0=Lovin' Her Was Easier
TTITLE1=It'll Be Her
TTITLE2=Busted
TTITLE3=Feeling' The Weight of My Chains
TTITLE4=Just One Time
TTITLE5=The Last Thing On My Mind
TTITLE6=United We Fall
TTITLE7=Drinkin' Them Beers
TTITLE8=Tryin' to Outrun the Wind
TTITLE9=A Mansion on the Hill
TTITLE10=I Still Love You
TTITLE11=Can't Live with 'Em
TTITLE12=Rosali
TTITLE13=Naked Emotions
TTITLE14=Happy Hour Blues
TTITLE15=Oh, America
TTITLE16=Can I Sleep Here Tonight?
TTITLE17=Stay Young
TTITLE18=I Could Never Live Alone Again
TTITLE19=Maria Consuela
EXTD=YEAR: 2006
EXTT0=
EXTT1=
EXTT2=
EXTT3=
EXTT4=
EXTT5=
EXTT6=
EXTT7=
EXTT8=
EXTT9=
EXTT10=
EXTT11=
EXTT12=
EXTT13=
EXTT14=
EXTT15=
EXTT16=
EXTT17=
EXTT18=
EXTT19=
PLAYORDER=
